<svg xmlns="http://www.w3.org/2000/svg" width="640" height="160" viewBox="0 0 640 160" fill="none">
  <rect x="210" y="24" width="410" height="112" rx="28" fill="#262626"/>
  <!-- KIT fan (simplified) -->
  <g transform="translate(44,30) scale(1.1)" fill="#262626">
    <path d="M50 50 L10 62 A42 42 0 0 1 50 50" fill="#262626"/>
  </g>
  <g transform="translate(44,30)">
    <path d="M6 86 A46 46 0 0 1 52 40 L56 64 Z" fill="#262626"/>
  </g>
  <!-- KIT letters -->
  <g transform="translate(80,44)" fill="#111">
    <rect x="0" y="0" width="18" height="72" rx="2" fill="#111"/>
    <path d="M38 72 L20 72 L46 36 L22 0 L40 0 L60 28 L80 0 L98 0 L74 36 L100 72 L82 72 L60 42 Z" fill="#111"/>
    <rect x="118" y="0" width="18" height="72" rx="2" fill="#111"/>
  </g>
  <!-- 'nova*' -->
  <g transform="translate(240,40)">
    <text x="0" y="64" font-family="Inter, system-ui, -apple-system, Segoe UI, Roboto, Helvetica, Arial, sans-serif" font-size="72" font-weight="800" fill="#FFFFFF">nova</text>
  </g>
  <!-- star -->
  <g transform="translate(560,80)">
    <circle r="36" fill="#262626"/>
    <g fill="#FFFFFF">
      <circle cx="0" cy="-20" r="6"/>
      <circle cx="0" cy="20" r="6"/>
      <circle cx="-20" cy="0" r="6"/>
      <circle cx="20" cy="0" r="6"/>
      <circle cx="14" cy="-14" r="6"/>
      <circle cx="-14" cy="-14" r="6"/>
      <circle cx="14" cy="14" r="6"/>
      <circle cx="-14" cy="14" r="6"/>
    </g>
  </g>
</svg>

