<svg xmlns="http://www.w3.org/2000/svg" width="400" height="80" viewBox="0 0 400 80" fill="none">
  <!-- KIT Fan/Logo left side -->
  <g transform="translate(8, 12)">
    <!-- KIT fan segments (simplified representation) -->
    <path d="M10 30 L0 28 L5 15 Z" fill="#000"/>
    <path d="M10 30 L5 15 L15 10 Z" fill="#000"/>
    <path d="M10 30 L15 10 L28 8 Z" fill="#000"/>
    <path d="M10 30 L28 8 L38 12 Z" fill="#000"/>
    <path d="M10 30 L38 12 L42 22 Z" fill="#000"/>
    <path d="M10 30 L42 22 L40 35 Z" fill="#000"/>
    <path d="M10 30 L40 35 L32 45 Z" fill="#000"/>
    <path d="M10 30 L32 45 L20 50 Z" fill="#000"/>
  </g>
  
  <!-- KIT Text -->
  <text x="65" y="50" font-family="system-ui, -apple-system, sans-serif" font-size="40" font-weight="700" fill="#000">KIT</text>
  
  <!-- nova pill background -->
  <rect x="180" y="15" width="210" height="50" rx="25" fill="#000"/>
  
  <!-- nova text -->
  <text x="200" y="50" font-family="system-ui, -apple-system, sans-serif" font-size="36" font-weight="700" fill="#FFF">nova</text>
  
  <!-- star/asterisk symbol -->
  <g transform="translate(365, 40)">
    <circle cx="0" cy="0" r="3" fill="#FFF"/>
    <circle cx="0" cy="-10" r="3" fill="#FFF"/>
    <circle cx="0" cy="10" r="3" fill="#FFF"/>
    <circle cx="-10" cy="0" r="3" fill="#FFF"/>
    <circle cx="10" cy="0" r="3" fill="#FFF"/>
    <circle cx="-7" cy="-7" r="3" fill="#FFF"/>
    <circle cx="7" cy="-7" r="3" fill="#FFF"/>
    <circle cx="-7" cy="7" r="3" fill="#FFF"/>
    <circle cx="7" cy="7" r="3" fill="#FFF"/>
  </g>
</svg>
